# Blender v3.0.0 OBJ File: 'gato export.blend'
# www.blender.org
mtllib El Gato.mtl
o Body_Cube.002
v 1.436301 1.959389 -0.272780
v 0.670478 3.422945 0.383542
v 1.000000 1.347512 0.383542
v -0.670478 3.422945 0.383542
v 1.848567 2.093826 -0.272780
v -1.000000 1.347512 0.383542
v 1.436301 1.959389 0.272780
v 0.670478 3.422945 -0.383542
v 1.000000 1.347512 -0.383542
v -0.670478 3.422945 -0.383542
v 1.848567 2.093826 0.272780
v -1.000000 1.347512 -0.383542
v -1.436302 1.959389 -0.272780
v 0.842530 -0.060642 0.383542
v -0.842530 -0.060642 0.383542
v -1.848567 2.093826 -0.272780
v 0.842530 -0.060642 -0.383542
v -0.842530 -0.060642 -0.383542
v 0.000000 1.347512 -0.383542
v -1.436302 1.959389 0.272780
v -0.000000 3.422945 0.383542
v 0.000000 3.422945 -0.383542
v -1.848567 2.093826 0.272780
v -0.000000 1.347512 0.383542
v 0.000000 1.172175 -0.383542
v 0.000000 1.172175 0.383542
v 0.921265 0.643435 -0.383542
v 0.421265 -0.060642 0.383542
v 0.921265 0.643435 0.383542
v 0.421265 -0.060642 -0.383542
v -0.921265 0.643435 -0.383542
v -0.421265 -0.060642 -0.383542
v -0.921265 0.643435 0.383542
v -0.421265 -0.060642 0.383542
v 0.834708 2.388572 0.383542
v -0.834708 2.388572 -0.383542
v -0.834708 2.388572 0.383542
v 0.834708 2.388572 -0.383542
v -0.000000 2.388572 0.383542
v 0.000000 2.388572 -0.383542
v -0.786207 2.686013 0.201261
v 1.112530 2.318683 -0.237659
v -0.709197 3.173285 0.198170
v -0.711037 3.173285 -0.198795
v -0.788758 2.686013 -0.202538
v 0.709197 3.173285 0.198170
v 0.788758 2.686012 -0.202538
v 0.711037 3.173285 -0.198795
v 0.786207 2.686012 0.201261
v 1.111254 2.326718 0.237021
v 1.278882 2.636452 0.235475
v 1.278882 2.636452 -0.235475
v -1.112530 2.318684 -0.237659
v -1.278882 2.636452 -0.235475
v -1.111254 2.326718 0.237020
v -1.278882 2.636452 0.235475
v -0.917354 1.868042 -0.383542
v 0.917354 1.868042 -0.383542
v 0.000000 1.868042 -0.383542
v 0.000000 1.868042 0.383542
v 0.917354 1.868042 0.383542
v -0.917354 1.868042 0.383542
v 0.881898 0.291397 0.383542
v 0.881898 0.291397 -0.383542
v 0.210633 0.555767 0.383542
v 0.210633 0.555767 -0.383542
v -0.881898 0.291397 0.383542
v -0.881898 0.291397 -0.383542
v -0.210633 0.555767 -0.383542
v -0.210633 0.555767 0.383542
vt 0.486312 0.534299
vt 0.530821 0.526225
vt 0.524676 0.540409
vt 0.501246 0.544657
vt 0.546233 0.568876
vt 0.501725 0.576949
vt 0.508724 0.564710
vt 0.531758 0.560533
vt 0.614036 0.512290
vt 0.683032 0.512290
vt 0.676816 0.540020
vt 0.614036 0.540020
vt 0.499647 0.440010
vt 0.455138 0.448084
vt 0.449917 0.433655
vt 0.494426 0.425581
vt 0.515308 0.483298
vt 0.470800 0.491372
vt 0.460358 0.462513
vt 0.504867 0.454440
vt 0.734801 0.547258
vt 0.707516 0.543133
vt 0.699505 0.526986
vt 0.751336 0.534828
vt 0.727496 0.570617
vt 0.736366 0.584495
vt 0.684535 0.576653
vt 0.700674 0.566561
vt 0.702233 0.344197
vt 0.720764 0.301870
vt 0.687948 0.294662
vt 0.669417 0.336988
vt 0.614036 0.595124
vt 0.563607 0.595124
vt 0.551255 0.540020
vt 0.614036 0.462407
vt 0.614036 0.484560
vt 0.538823 0.484560
vt 0.544745 0.447052
vt 0.781616 0.434429
vt 0.729785 0.426587
vt 0.734856 0.409784
vt 0.786687 0.417626
vt 0.455544 0.525437
vt 0.398363 0.546031
vt 0.381867 0.523050
vt 0.444200 0.500601
vt 0.766402 0.484840
vt 0.714571 0.476997
vt 0.724714 0.443391
vt 0.776545 0.451233
vt 0.474842 0.534801
vt 0.563427 0.534816
vt 0.563427 0.575017
vt 0.474843 0.575001
vt 0.341183 0.566624
vt 0.319535 0.545498
vt 0.545039 0.512290
vt 0.704794 0.297046
vt 0.715387 0.338790
vt 0.683022 0.342911
vt 0.672429 0.301166
vt 0.563427 0.534816
vt 0.652011 0.534801
vt 0.652011 0.575002
vt 0.563427 0.575017
vt 0.547706 0.428298
vt 0.598193 0.435975
vt 0.466889 0.550274
vt 0.489432 0.599628
vt 0.447639 0.614679
vt 0.414859 0.569012
vt 0.192078 0.583470
vt 0.192078 0.643136
vt 0.000000 0.643136
vt 0.000000 0.583470
vt 0.523064 0.504761
vt 0.478556 0.512836
vt 0.192078 0.702803
vt 0.000000 0.702803
vt 0.758869 0.509834
vt 0.707038 0.501991
vt 0.664464 0.595124
vt 0.559673 0.552482
vt 0.582582 0.545008
vt 0.582582 0.572376
vt 0.557218 0.569694
vt 0.651816 0.501660
vt 0.613843 0.501660
vt 0.616801 0.485388
vt 0.648808 0.485336
vt 0.657607 0.505512
vt 0.654824 0.488017
vt 0.680187 0.485336
vt 0.680187 0.512704
vt 0.411517 0.538207
vt 0.384407 0.537883
vt 0.386429 0.523638
vt 0.409491 0.523636
vt 0.715119 0.301610
vt 0.715119 0.339173
vt 0.675045 0.339173
vt 0.675045 0.301610
vt 0.382378 0.571686
vt 0.427813 0.568755
vt 0.462105 0.611435
vt 0.409098 0.597257
vt 0.448746 0.529154
vt 0.383240 0.543789
vt 0.375889 0.514468
vt 0.431144 0.502223
vt 0.589765 0.504318
vt 0.541003 0.519848
vt 0.546179 0.482634
vt 0.589163 0.445625
vt 0.652683 0.547167
vt 0.657050 0.578631
vt 0.589765 0.578631
vt 0.594140 0.547867
vt 0.720170 0.306296
vt 0.682884 0.300653
vt 0.672340 0.335602
vt 0.709626 0.341246
vt 0.680365 0.428298
vt 0.683326 0.447052
vt 0.629878 0.435975
vt 0.689248 0.484560
vt 0.368690 0.504691
vt 0.302130 0.512646
vt 0.293428 0.496220
vt 0.339837 0.487514
vt 0.403369 0.456625
vt 0.416979 0.471283
vt 0.366095 0.478057
vt 0.413543 0.552454
vt 0.382385 0.552454
vt 0.660003 0.522745
vt 0.679909 0.539883
vt 0.654824 0.517985
vt 0.610835 0.517985
vt 0.582387 0.517859
vt 0.562515 0.535010
vt 0.648317 0.516405
vt 0.598515 0.516401
vt 0.589765 0.563418
vt 0.534994 0.557626
vt 0.466475 0.556155
vt 0.390591 0.573109
vt 0.356596 0.546276
vt 0.392936 0.525855
vt 0.362830 0.587750
vt 0.405847 0.629731
vt 0.284725 0.479794
vt 0.310984 0.470337
vt 0.677405 0.409543
vt 0.645720 0.409543
vt 0.474842 0.494600
vt 0.563427 0.494615
vt 0.389759 0.441966
vt 0.363500 0.451423
vt 0.550667 0.409543
vt 0.582351 0.409543
vt 0.563427 0.494616
vt 0.652011 0.494600
vn -0.6982 0.1109 -0.7072
vn -0.6984 0.1108 0.7070
vn -0.7858 -0.0768 0.6136
vn -0.7830 -0.0763 -0.6174
vn -0.5264 0.6164 0.5856
vn -0.5258 0.6160 -0.5866
vn -0.9419 0.3175 -0.1094
vn -0.9424 0.3169 0.1070
vn 0.0000 0.0000 1.0000
vn 0.6984 0.1109 0.7071
vn 0.6984 0.1108 0.7070
vn -0.7027 -0.0786 0.7071
vn -0.7027 -0.0786 -0.7071
vn -0.5414 -0.6053 -0.5834
vn -0.5414 -0.6053 0.5834
vn -0.7347 0.0169 0.6782
vn -0.7347 0.0169 -0.6782
vn 0.7830 -0.0763 -0.6174
vn 0.7858 -0.0768 0.6136
vn 0.6982 0.1109 -0.7072
vn 0.9419 0.3175 -0.1094
vn 0.5258 0.6160 -0.5866
vn 0.5264 0.6164 0.5856
vn 0.9424 0.3169 0.1070
vn 0.4668 -0.6528 -0.5967
vn 0.4668 -0.6528 0.5967
vn 0.0000 0.7071 0.7071
vn 0.0000 -0.1777 0.9841
vn 0.7027 -0.0786 -0.7071
vn 0.7027 -0.0786 0.7071
vn 0.5414 -0.6053 0.5834
vn 0.5414 -0.6053 -0.5834
vn -0.6984 0.1109 -0.7071
vn 0.0000 0.0000 -1.0000
vn 0.7347 0.0169 -0.6782
vn 0.7347 0.0169 0.6782
vn -0.6691 -0.2286 -0.7071
vn -0.6691 -0.2286 0.7071
vn 0.0000 -0.1777 -0.9841
vn 0.6984 0.1109 -0.7071
vn -0.6984 0.1109 0.7071
vn -0.4668 -0.6528 0.5967
vn -0.4668 -0.6528 -0.5967
vn 0.6691 -0.2286 -0.7071
vn 0.6691 -0.2286 0.7071
vn 0.0000 0.7071 -0.7071
vn -0.5587 -0.4458 -0.6994
vn 0.4537 0.5377 -0.7106
vn 0.7997 -0.1807 -0.5725
vn -0.2187 -0.7526 -0.6210
vn 0.4528 0.5374 0.7114
vn -0.5553 -0.4425 0.7041
vn -0.2185 -0.7521 0.6217
vn 0.7997 -0.1808 0.5725
vn 0.5587 -0.4458 -0.6994
vn -0.4537 0.5377 -0.7106
vn -0.4528 0.5374 0.7114
vn 0.5553 -0.4425 0.7041
vn 0.2185 -0.7521 0.6217
vn 0.2187 -0.7526 -0.6210
vn -0.7997 -0.1807 -0.5725
vn -0.7997 -0.1808 0.5725
usemtl Material.001
s 1
f 36/1/1 37/2/2 41/3/3 45/4/4
f 4/5/5 10/6/6 44/7/7 43/8/8
f 60/9/9 61/10/10 35/11/11 39/12/9
f 67/13/12 68/14/13 18/15/14 15/16/15
f 6/17/16 12/18/17 31/19/13 33/20/12
f 47/21/18 49/22/19 35/23/11 38/24/20
f 48/25/21 8/26/22 2/27/23 46/28/24
f 32/29/25 34/30/26 15/31/15 18/32/14
f 39/12/9 21/33/27 4/34/5 37/35/2
f 26/36/28 24/37/9 6/38/16 33/39/12
f 64/40/29 63/41/30 14/42/31 17/43/32
f 57/44/33 59/45/34 19/46/34 12/47/17
f 9/48/35 3/49/36 29/50/30 27/51/29
f 66/52/37 65/53/38 26/54/28 25/55/39
f 59/45/34 58/56/40 9/57/35 19/46/34
f 60/9/9 62/58/41 6/38/16 24/37/9
f 17/59/32 14/60/31 28/61/42 30/62/43
f 69/63/44 70/64/45 34/65/26 32/66/25
f 67/67/12 70/68/45 26/36/28 33/39/12
f 36/69/1 10/70/6 22/71/46 40/72/34
f 4/73/5 21/74/27 22/75/46 10/76/6
f 62/77/41 37/2/2 36/1/1 57/78/33
f 2/79/23 8/80/22 22/75/46 21/74/27
f 58/81/40 38/24/20 35/23/11 61/82/10
f 35/11/11 2/83/23 21/33/27 39/12/9
f 42/84/47 52/85/48 5/86/49 1/87/50
f 51/88/51 52/89/48 48/90/21 46/91/24
f 50/92/52 7/93/53 11/94/54 51/95/51
f 42/96/47 50/97/52 49/98/19 47/99/18
f 5/100/49 11/101/54 7/102/53 1/103/50
f 53/104/55 54/105/56 44/106/7 45/107/4
f 54/108/56 56/109/57 43/110/8 44/111/7
f 56/112/57 55/113/58 41/114/3 43/115/8
f 55/116/58 20/117/59 13/118/60 53/119/55
f 16/120/61 13/121/60 20/122/59 23/123/62
f 63/124/30 29/125/30 26/36/28 65/126/38
f 26/36/28 29/125/30 3/127/36 24/37/9
f 25/128/39 19/46/34 9/57/35 27/129/29
f 64/130/29 66/131/37 25/128/39 27/129/29
f 68/132/13 31/133/13 25/128/39 69/134/44
f 25/128/39 31/133/13 12/47/17 19/46/34
f 1/135/50 7/136/53 50/97/52 42/96/47
f 49/137/19 50/92/52 51/95/51 46/138/24
f 11/139/54 5/140/49 52/89/48 51/88/51
f 48/141/21 52/85/48 42/84/47 47/142/18
f 41/143/3 55/116/58 53/119/55 45/144/4
f 23/145/62 20/146/59 55/113/58 56/112/57
f 16/147/61 23/148/62 56/109/57 54/108/56
f 13/149/60 16/150/61 54/105/56 53/104/55
f 35/23/11 49/22/19 46/28/24 2/27/23
f 43/8/8 41/3/3 37/2/2 4/5/5
f 8/26/22 48/25/21 47/21/18 38/24/20
f 10/6/6 36/1/1 45/4/4 44/7/7
f 38/151/20 40/72/34 22/71/46 8/152/22
f 9/48/35 58/81/40 61/82/10 3/49/36
f 6/17/16 62/77/41 57/78/33 12/18/17
f 39/12/9 37/35/2 62/58/41 60/9/9
f 40/72/34 38/151/20 58/56/40 59/45/34
f 36/69/1 40/72/34 59/45/34 57/44/33
f 24/37/9 3/127/36 61/10/10 60/9/9
f 17/153/32 30/154/43 66/131/37 64/130/29
f 14/155/31 63/124/30 65/126/38 28/156/42
f 30/157/43 28/158/42 65/53/38 66/52/37
f 27/51/29 29/50/30 63/41/30 64/40/29
f 18/159/14 68/132/13 69/134/44 32/160/25
f 15/161/15 34/162/26 70/68/45 67/67/12
f 25/163/39 26/164/28 70/64/45 69/63/44
f 33/20/12 31/19/13 68/14/13 67/13/12
o head_Cube.001
v -0.581801 3.258277 -0.801000
v -1.000000 3.676476 -0.801001
v -0.711032 3.278746 -0.801001
v -0.827612 3.338146 -0.801001
v -0.920131 3.430665 -0.801001
v -0.979532 3.547246 -0.801001
v -1.000000 4.840079 -0.801001
v -0.581801 5.258277 -0.801000
v -0.979532 4.969309 -0.801001
v -0.920131 5.085890 -0.801001
v -0.827612 5.178409 -0.801001
v -0.711032 5.237809 -0.801001
v 1.000000 3.676476 -0.801000
v 0.581801 3.258277 -0.801000
v 0.979532 3.547246 -0.801000
v 0.920131 3.430665 -0.801000
v 0.827612 3.338146 -0.801000
v 0.711032 3.278746 -0.801000
v 0.581801 5.258277 -0.801000
v 1.000000 4.840079 -0.801000
v 0.711032 5.237809 -0.801000
v 0.827612 5.178409 -0.801000
v 0.920131 5.085890 -0.801000
v 0.979532 4.969309 -0.801000
v -1.000000 3.676476 0.801000
v -0.581801 3.258277 0.801000
v -0.979532 3.547246 0.801000
v -0.920131 3.430665 0.801000
v -0.827612 3.338146 0.801000
v -0.711032 3.278746 0.801000
v -0.581801 5.258277 0.801000
v -1.000000 4.840079 0.801000
v -0.711032 5.237809 0.801000
v -0.827612 5.178409 0.801000
v -0.920131 5.085890 0.801000
v -0.979532 4.969309 0.801000
v 0.581801 3.258277 0.801000
v 1.000000 3.676476 0.801001
v 0.711032 3.278746 0.801001
v 0.827612 3.338146 0.801001
v 0.920131 3.430665 0.801001
v 0.979532 3.547246 0.801001
v 1.000000 4.840079 0.801001
v 0.581801 5.258277 0.801000
v 0.979532 4.969309 0.801001
v 0.920131 5.085890 0.801001
v 0.827612 5.178409 0.801001
v 0.711032 5.237809 0.801001
v 0.581801 3.258277 0.000000
v -0.581801 3.258277 0.000000
v 0.000000 3.258277 -0.801000
v -0.000000 3.258277 0.801000
vt 0.405308 0.778446
vt 0.405308 0.829876
vt 0.305344 0.829876
vt 0.305344 0.778446
vt 0.534487 0.746484
vt 0.544811 0.747643
vt 0.554125 0.751004
vt 0.561516 0.756239
vt 0.566261 0.762836
vt 0.567896 0.770149
vt 0.567896 0.835994
vt 0.566261 0.843307
vt 0.561516 0.849904
vt 0.554125 0.855139
vt 0.544811 0.858501
vt 0.534487 0.859659
vt 0.441530 0.859659
vt 0.431206 0.858501
vt 0.421892 0.855139
vt 0.414501 0.849904
vt 0.409756 0.843307
vt 0.408121 0.835994
vt 0.408121 0.770149
vt 0.409756 0.762836
vt 0.414501 0.756239
vt 0.421892 0.751004
vt 0.431206 0.747643
vt 0.441530 0.746484
vt 0.488008 0.746484
vt 0.516732 0.865347
vt 0.516732 0.930910
vt 0.449961 0.930910
vt 0.449961 0.865347
vt 0.800112 0.748620
vt 0.810061 0.749736
vt 0.819037 0.752976
vt 0.826160 0.758021
vt 0.830733 0.764379
vt 0.832309 0.771427
vt 0.832309 0.834884
vt 0.830733 0.841932
vt 0.826160 0.848290
vt 0.819037 0.853335
vt 0.810061 0.856575
vt 0.800112 0.857691
vt 0.710524 0.857691
vt 0.700575 0.856575
vt 0.691599 0.853335
vt 0.684476 0.848290
vt 0.679903 0.841932
vt 0.678327 0.834884
vt 0.678327 0.771427
vt 0.679903 0.764379
vt 0.684476 0.758021
vt 0.691599 0.752976
vt 0.700575 0.749736
vt 0.710524 0.748620
vt 0.755318 0.748620
vt 0.672379 0.763501
vt 0.672379 0.855925
vt 0.571021 0.855925
vt 0.571021 0.763501
vt 0.571021 0.711539
vt 0.660841 0.711539
vt 0.672379 0.711539
vt 0.672379 0.721931
vt 0.571021 0.721931
vt 0.672379 0.732324
vt 0.571021 0.732324
vt 0.571021 0.735188
vt 0.672379 0.735188
vt 0.672379 0.745581
vt 0.571021 0.745581
vt 0.672379 0.755973
vt 0.571021 0.755973
vt 0.672379 0.766366
vt 0.571021 0.766366
vt 0.524286 0.865347
vt 0.524286 0.930910
vt 0.531376 0.865347
vt 0.531376 0.930910
vt 0.537308 0.865347
vt 0.537308 0.930910
vt 0.674286 0.851546
vt 0.570316 0.851546
vt 0.570316 0.846346
vt 0.674286 0.846346
vt 0.570316 0.839667
vt 0.674286 0.839667
vt 0.304331 0.752491
vt 0.354074 0.752491
vt 0.403817 0.752491
vt 0.403817 0.758242
vt 0.304331 0.758242
vt 0.305220 0.757562
vt 0.405184 0.757562
vt 0.405184 0.762986
vt 0.305220 0.762986
vt 0.405184 0.767524
vt 0.305220 0.767524
vt 0.305344 0.767581
vt 0.405308 0.767581
vt 0.405308 0.772734
vt 0.305344 0.772734
vt 0.442683 0.930910
vt 0.442683 0.865347
vt 0.400892 0.852700
vt 0.308332 0.852700
vt 0.308332 0.848245
vt 0.400892 0.848245
vt 0.407295 0.845879
vt 0.302571 0.845879
vt 0.302571 0.841319
vt 0.407295 0.841319
vt 0.405308 0.840741
vt 0.305344 0.840741
vt 0.305344 0.835588
vt 0.405308 0.835588
vt 0.401092 0.810690
vt 0.354125 0.810631
vt 0.307159 0.810572
vt 0.307098 0.834736
vt 0.401032 0.834854
vt 0.354004 0.858959
vt 0.400971 0.859019
vt 0.307037 0.858900
vn -0.7217 -0.0568 0.6898
vn -0.7217 0.0568 0.6898
vn -0.7217 0.0568 -0.6898
vn -0.7217 -0.0568 -0.6898
vn 0.0568 -0.7217 0.6898
vn 0.2284 -0.7030 0.6735
vn 0.4345 -0.5980 0.6735
vn 0.5980 -0.4345 0.6735
vn 0.7030 -0.2284 0.6735
vn 0.7217 -0.0568 0.6898
vn 0.7217 0.0568 0.6898
vn 0.7030 0.2284 0.6735
vn 0.5980 0.4345 0.6735
vn 0.4345 0.5980 0.6735
vn 0.2284 0.7030 0.6735
vn 0.0568 0.7217 0.6898
vn -0.0568 0.7217 0.6898
vn -0.2284 0.7030 0.6735
vn -0.4345 0.5980 0.6735
vn -0.5980 0.4345 0.6735
vn -0.7030 0.2284 0.6735
vn -0.7030 -0.2284 0.6735
vn -0.5980 -0.4345 0.6735
vn -0.4345 -0.5980 0.6735
vn -0.2284 -0.7030 0.6735
vn -0.0568 -0.7217 0.6898
vn 0.0000 -0.7071 0.7071
vn 0.0568 0.7217 -0.6898
vn -0.0568 0.7217 -0.6898
vn -0.0568 -0.7217 -0.6898
vn -0.2284 -0.7030 -0.6735
vn -0.4345 -0.5980 -0.6735
vn -0.5980 -0.4345 -0.6735
vn -0.7030 -0.2284 -0.6735
vn -0.7030 0.2284 -0.6735
vn -0.5980 0.4345 -0.6735
vn -0.4345 0.5980 -0.6735
vn -0.2284 0.7030 -0.6735
vn 0.2284 0.7030 -0.6735
vn 0.4345 0.5980 -0.6735
vn 0.5980 0.4345 -0.6735
vn 0.7030 0.2284 -0.6735
vn 0.7217 0.0568 -0.6898
vn 0.7217 -0.0568 -0.6898
vn 0.7030 -0.2284 -0.6735
vn 0.5980 -0.4345 -0.6735
vn 0.4345 -0.5980 -0.6735
vn 0.2284 -0.7030 -0.6735
vn 0.0568 -0.7217 -0.6898
vn 0.0000 -0.7071 -0.7071
vn 0.0784 -0.9969 0.0000
vn -0.0784 -0.9969 0.0000
usemtl Material.001
s 1
f 95/165/63 102/166/64 77/167/65 72/168/66
f 107/169/67 109/170/68 110/171/69 111/172/70 112/173/71 108/174/72 113/175/73 115/176/74 116/177/75 117/178/76 118/179/77 114/180/78 101/181/79 103/182/80 104/183/81 105/184/82 106/185/83 102/186/64 95/187/63 97/188/84 98/189/85 99/190/86 100/191/87 96/192/88 122/193/89
f 114/194/78 89/195/90 78/196/91 101/197/79
f 71/198/92 73/199/93 74/200/94 75/201/95 76/202/96 72/203/66 77/204/65 79/205/97 80/206/98 81/207/99 82/208/100 78/209/91 89/210/90 91/211/101 92/212/102 93/213/103 94/214/104 90/215/105 83/216/106 85/217/107 86/218/108 87/219/109 88/220/110 84/221/111 121/222/112
f 83/223/106 90/224/105 113/225/73 108/226/72
f 107/227/67 119/228/113 84/229/111 88/230/110 109/231/68
f 109/231/68 88/230/110 87/232/109 110/233/69
f 110/234/69 87/235/109 86/236/108 111/237/70
f 111/237/70 86/236/108 85/238/107 112/239/71
f 112/239/71 85/238/107 83/240/106 108/241/72
f 89/195/90 114/194/78 118/242/77 91/243/101
f 91/243/101 118/242/77 117/244/76 92/245/102
f 92/245/102 117/244/76 116/246/75 93/247/103
f 93/248/103 116/249/75 115/250/74 94/251/104
f 94/251/104 115/250/74 113/252/73 90/253/105
f 71/254/92 120/255/114 96/256/88 100/257/87 73/258/93
f 73/259/93 100/260/87 99/261/86 74/262/94
f 74/262/94 99/261/86 98/263/85 75/264/95
f 75/265/95 98/266/85 97/267/84 76/268/96
f 76/268/96 97/267/84 95/165/63 72/168/66
f 101/197/79 78/196/91 82/269/100 103/270/80
f 103/271/80 82/272/100 81/273/99 104/274/81
f 104/275/81 81/276/99 80/277/98 105/278/82
f 105/279/82 80/280/98 79/281/97 106/282/83
f 106/282/83 79/281/97 77/167/65 102/166/64
f 96/283/88 120/284/114 71/285/92 121/286/112 122/287/89
f 119/288/113 107/289/67 122/287/89 121/286/112 84/290/111
o ear.l_Plane.001
v 1.067946 4.841106 0.000001
v 1.230146 5.161446 0.000001
v 0.404540 5.334757 0.000001
v 0.688334 5.629865 0.000001
v 0.957511 5.812956 0.000001
v 1.320039 5.495627 0.000001
v 1.220773 5.953683 0.000001
v 1.238984 5.955279 0.000001
v 1.254267 5.945570 0.000001
v 1.382237 5.816759 0.000001
v 1.388582 5.798004 0.000001
v 1.385218 5.777762 0.000001
vt 0.138184 0.866414
vt 0.114252 0.877643
vt 0.072028 0.850246
vt 0.092828 0.832344
vt 0.086326 0.884075
vt 0.061551 0.863183
vt 0.063668 0.887440
vt 0.062045 0.887607
vt 0.060556 0.887226
vt 0.050468 0.879832
vt 0.049717 0.878956
vt 0.049874 0.877926
vn 0.0000 -0.0000 1.0000
usemtl Material.001
s off
f 123/291/115 124/292/115 126/293/115 125/294/115
f 126/293/115 124/292/115 128/295/115 127/296/115
f 134/297/115 133/298/115 132/299/115 131/300/115 130/301/115 129/302/115 127/296/115 128/295/115
o ear.r_Plane.002
v -1.067946 4.841106 0.000001
v -1.230147 5.161447 0.000001
v -0.404541 5.334758 0.000001
v -0.688334 5.629865 0.000001
v -0.957512 5.812956 0.000001
v -1.320039 5.495627 0.000001
v -1.220773 5.953684 0.000001
v -1.238984 5.955280 0.000001
v -1.254267 5.945570 0.000001
v -1.382237 5.816759 0.000001
v -1.388582 5.798004 0.000001
v -1.385219 5.777763 0.000001
vt 0.138184 0.866414
vt 0.092828 0.832344
vt 0.072028 0.850246
vt 0.114252 0.877643
vt 0.061551 0.863183
vt 0.086326 0.884075
vt 0.063668 0.887440
vt 0.049874 0.877926
vt 0.049717 0.878956
vt 0.050468 0.879832
vt 0.060556 0.887226
vt 0.062045 0.887607
vn -0.0000 -0.0000 1.0000
usemtl Material.001
s off
f 135/303/116 137/304/116 138/305/116 136/306/116
f 138/305/116 139/307/116 140/308/116 136/306/116
f 146/309/116 140/308/116 139/307/116 141/310/116 142/311/116 143/312/116 144/313/116 145/314/116
